<?xml version="1.0" encoding="UTF-8"?>
<svg id="Calque_1" xmlns="http://www.w3.org/2000/svg" viewBox="0 0 36.12 60.71"><defs><style>.cls-1{fill:#1a1a1a;}.cls-1,.cls-2{fill-rule:evenodd;}.cls-2{fill:#f6a507;}</style></defs><g id="Croix-Rouge"><g id="_00-Homepage-Copy-2"><g id="Group-15"><path class="cls-2" d="M18.06,0C15.54,16.58,0,28.31,0,42.82c0,9.88,8.08,17.89,18.06,17.89s18.06-8.01,18.06-17.89c0-15.75-16.22-26.55-18.06-42.82Zm-7.54,22.62c2.71-4.4,5.49-8.89,7.45-13.8h.01c1.89,4.71,4.63,9,7.32,13.2,4.37,6.83,8.5,13.27,8.5,20.8,0,3.15-.95,6.07-2.58,8.53-2.27,.53-5.57-.25-9.89-2.35-5.32-2.58-11.51-3.39-18.56-2.48-.29-1.19-.47-2.42-.47-3.7,0-6.88,3.99-13.35,8.22-20.2Z"/><g id="Group-14"><g id="Group-3-Copy-3"><path id="Fill-1" class="cls-1" d="M22.99,48.93c-.24,.09-.34-.03-.77-.64-.45-.55-1.34-1.72-3.83-1.75-1.13,.02-2.05,.3-2.62,.68-.59,.37-.92,.77-1.15,1.07-.22,.3-.35,.49-.46,.58-.11,.08-.2,.09-.31,.06-.2-.06-.47-.24-.16-1.18,.17-.45,.51-1.12,1.29-1.73,.77-.62,1.91-1.08,3.47-1.08,.65,.02,1.41,.11,1.97,.31,.58,.21,1.07,.46,1.44,.77,.77,.6,1.11,1.28,1.29,1.73,.31,.95,.04,1.13-.16,1.18"/></g><g id="Group-10"><g id="Group-3-2"><path id="Fill-1-2" class="cls-1" d="M26.31,35.16c1.46,0,2.65,1.17,2.65,2.62s-1.18,2.62-2.65,2.62-2.65-1.17-2.65-2.62,1.18-2.62,2.65-2.62"/></g><g id="Group-6"><path id="Fill-4" class="cls-1" d="M10.43,35.16c1.46,0,2.65,1.17,2.65,2.62s-1.18,2.62-2.65,2.62-2.65-1.17-2.65-2.62,1.18-2.62,2.65-2.62"/></g></g></g></g></g></g><script xmlns=""/></svg>