<?xml version="1.0" encoding="utf-8"?>
<!-- Generator: Adobe Illustrator 19.2.1, SVG Export Plug-In . SVG Version: 6.00 Build 0)  -->
<svg version="1.1" id="Calque_1" xmlns="http://www.w3.org/2000/svg" xmlns:xlink="http://www.w3.org/1999/xlink" x="0px" y="0px"
	 viewBox="0 0 231 50" style="enable-background:new 0 0 231 50;" xml:space="preserve">
<style type="text/css">
	.st0{fill:#ED1C24;}
</style>
<polygon class="st0" points="214.9,15.8 214.9,0 198.8,0 198.8,15.8 182.7,15.8 182.7,31.6 198.8,31.6 198.8,47.4 214.9,47.4 
	214.9,31.6 231,31.6 231,15.8 "/>
<g>
	<path d="M10.5,20.7c-0.2-1.6-1.3-2.2-2.6-2.2c-2.6,0-3.5,2.4-3.5,5.3c0,1,0,4.9,3.4,4.9c2.3,0,2.6-1.7,2.6-2.3h4.5
		c0,4.9-5.1,5.4-7.1,5.4c-1.5,0-4.2-0.3-6-2.1c-1.7-1.8-2-4.4-2-6c0-2.2,0.5-4.3,2-6c1.6-1.8,3.7-2.3,6-2.3c2.6,0,4.5,0.6,5.7,1.9
		c1.3,1.4,1.3,2.8,1.3,3.4H10.5"/>
	<path d="M17.5,15.8h7.3c2.8,0,3.9,0.2,4.9,1.1c0.5,0.5,1.1,1.4,1.1,3.1c0,1.7-0.7,2.5-1.4,2.9c-1,0.6-2,0.7-2.4,0.8v0.1
		c3.1,0.1,3.2,1.4,3.6,3.9c0.2,1.1,0.4,2.8,0.7,3.9h-4.7c-0.3-1-0.4-2.2-0.5-3.6c-0.2-1.9-0.3-2.6-2.2-2.6h-1.8v6.2h-4.4V15.8
		 M21.9,22.5h1.6c1,0,1.4,0,1.8-0.1c1-0.3,1.2-1.3,1.2-1.8c0-1.9-1.7-1.9-3-1.9h-1.6V22.5z"/>
	<path d="M34.9,17.5c2-2,5-2.2,6.2-2.2c6.3,0,8,4.5,8,8.4c0,6.3-4.5,8.2-8.2,8.2c-4.2,0-8.1-2.3-8.1-8.2
		C32.7,22.7,32.9,19.5,34.9,17.5 M40.8,28.7c3.1,0,3.7-2.9,3.7-5.1c0-2.2-0.5-3.3-1-4c-0.6-0.9-1.7-1.1-2.6-1.1
		c-2.9,0-3.7,2.5-3.7,5.2C37.2,26.2,37.9,28.7,40.8,28.7"/>
	<rect x="51.3" y="15.8" width="4.5" height="15.8"/>
	<polygon points="62.6,31.5 57.5,31.5 63.5,23.3 57.9,15.8 63.6,15.8 66.6,20.7 69.8,15.8 74.9,15.8 69.2,23.2 75.1,31.5 69.5,31.5 
		66.1,25.9 	"/>
	<rect x="75.2" y="22.7" width="6.2" height="2.6"/>
	<path d="M84.2,15.8h7.3c2.8,0,3.9,0.2,4.9,1.1c0.5,0.5,1.1,1.4,1.1,3.1c0,1.7-0.7,2.5-1.4,2.9c-1,0.6-2,0.7-2.4,0.8v0.1
		c3.1,0.1,3.2,1.4,3.6,3.9c0.2,1.1,0.4,2.8,0.7,3.9h-4.7c-0.3-1-0.4-2.2-0.5-3.6c-0.2-1.9-0.3-2.6-2.2-2.6h-1.8v6.2h-4.4V15.8
		 M88.6,22.5h1.6c1,0,1.4,0,1.8-0.1c1-0.3,1.2-1.3,1.2-1.8c0-1.9-1.7-1.9-3-1.9h-1.6V22.5z"/>
	<path d="M101.6,17.5c2-2,5-2.2,6.2-2.2c6.3,0,8,4.5,8,8.4c0,6.3-4.5,8.2-8.2,8.2c-4.2,0-8.1-2.3-8.1-8.2
		C99.5,22.7,99.6,19.5,101.6,17.5 M107.6,28.7c3.1,0,3.6-2.9,3.6-5.1c0-2.2-0.5-3.3-1-4c-0.6-0.9-1.7-1.1-2.6-1.1
		c-2.9,0-3.7,2.5-3.7,5.2C104,26.2,104.7,28.7,107.6,28.7"/>
	<path d="M122.8,15.8v9.4c0,0.9,0.1,1.7,0.5,2.4c0.6,0.9,1.6,1.3,2.7,1.3c2.8,0,3.1-2.3,3.1-3.8v-9.2h4.3v9.1c0,1.7-0.2,3.6-1.2,4.8
		c-1.5,1.9-4.3,2.3-6.3,2.3c-7.5,0-7.5-4.6-7.5-7.2l0-9H122.8"/>
	<path d="M147.3,20.5c-0.2-1.6-1.5-2.1-2.7-2.1c-3,0-4.1,2.6-4.1,5.3c0,3.7,2,5.2,4.7,5.2c0.8,0,1.6-0.1,2.4-0.3v-3.1h-3.3v-3h7.4
		V31c-2.3,0.5-4.6,0.9-7,0.9c-1.7,0-4.1-0.3-5.9-1.6c-2-1.5-2.9-4-2.9-6.5c0-1.9,0.6-4.5,2.4-6.3c1.9-1.8,4.6-2.1,6.5-2.1
		c2.5,0,4.5,0.5,5.8,1.8c1.1,1.2,1.2,2.5,1.2,3.3H147.3"/>
	<polygon points="154.7,15.8 166.5,15.8 166.5,18.8 159,18.8 159,22.1 166.1,22.1 166.1,25.1 159,25.1 159,28.5 166.7,28.5 
		166.7,31.5 154.7,31.5 	"/>
	<path d="M90.3,36.1h1.4v9.6c0,0.2,0,0.8,0.1,1.2h-1.4l0-1.2c-0.1,0.2-0.3,0.5-0.7,0.8c-0.6,0.4-1.3,0.6-1.9,0.6
		c-1,0-3.2-0.5-3.2-3.8c0-2.9,1.6-4.1,3.4-4.1c1.6,0,2.2,1,2.3,1.3V36.1 M89.8,41c-0.3-0.4-0.9-0.8-1.7-0.8c-2.1,0-2.1,2.5-2.1,3
		c0,1.3,0.3,2.9,2.1,2.9c2.2,0,2.2-2.4,2.2-3C90.4,42,90.1,41.4,89.8,41"/>
	<path d="M95.2,43.4c0,1.6,0.6,2.7,2.2,2.7c0.9,0,1.6-0.5,1.8-1.6h1.4c0,0.4-0.1,1-0.6,1.6c-0.3,0.4-1.1,1-2.6,1
		c-2.4,0-3.5-1.5-3.5-3.9c0-1.5,0.3-2.7,1.5-3.5c0.7-0.5,1.6-0.6,2.1-0.6c3.4,0,3.3,3,3.3,4.2H95.2 M99.1,42.5
		c0-0.7-0.1-2.2-1.9-2.2c-0.9,0-2,0.6-2.1,2.2H99.1z"/>
	<path d="M106.9,36.1h3.9c1.3,0,2.1,0.1,2.7,0.8c0.5,0.4,0.8,1.1,0.8,1.9c0,1.8-1.3,2.3-1.8,2.4c0.6,0.2,2.2,0.6,2.2,2.7
		c0,1.5-0.9,2.2-1.3,2.5c-0.8,0.5-1.6,0.5-2.4,0.5h-4V36.1 M108.4,40.7h2.1c0.5,0,2.3,0,2.3-1.7c0-1.6-1.4-1.6-2.2-1.6h-2.2V40.7z
		 M108.4,45.7h2.6c1.2,0,2.1-0.6,2.1-1.9c0-1.1-0.7-1.9-2.1-1.9h-2.6V45.7z"/>
	<path d="M117.7,43.4c0,1.6,0.6,2.7,2.2,2.7c0.9,0,1.7-0.5,1.8-1.6h1.4c0,0.4-0.1,1-0.6,1.6c-0.3,0.4-1.1,1-2.6,1
		c-2.4,0-3.5-1.5-3.5-3.9c0-1.5,0.3-2.7,1.5-3.5c0.7-0.5,1.6-0.6,2.1-0.6c3.4,0,3.3,3,3.3,4.2H117.7 M121.7,42.5
		c0-0.7-0.1-2.2-1.9-2.2c-0.9,0-2,0.6-2.1,2.2H121.7z"/>
	<rect x="125.2" y="36.1" width="1.4" height="10.8"/>
	<path d="M130.7,47.5c0.1,0.8,0.4,1.5,1.8,1.5c2,0,2-1.4,2-3.5c-0.6,1.2-2,1.3-2.5,1.3c-0.7,0-1.7-0.1-2.3-0.9
		c-0.6-0.8-0.9-1.8-0.9-2.8c0-2.5,1.5-3.8,3.3-3.8c1.5,0,2.1,0.7,2.4,1.1l0-1h1.4l0,1.4l0,4.7c0,1.8-0.1,2.6-0.4,3.1
		c-0.6,1.2-2.1,1.4-3.1,1.4c-3,0-3.1-1.4-3.2-2.4H130.7 M134,45c0.3-0.4,0.5-0.8,0.5-2.2c0-0.9-0.2-1.5-0.6-1.9
		c-0.4-0.4-1-0.7-1.6-0.7c-1.8,0-2,1.8-2,2.8c0,1.2,0.3,2.7,2.1,2.7C133.2,45.8,133.7,45.5,134,45"/>
	<path d="M138.4,36.1h1.7v1.5h-1.7V36.1z M138.6,39.4h1.4V47h-1.4V39.4z"/>
	<path d="M149.3,39.4c0,0.3,0,1,0,1.2v9.2h-1.4v-3.7c-0.1,0.2-0.3,0.4-0.6,0.6c-0.6,0.4-1.4,0.5-1.7,0.5c-1.8,0-3.4-1.3-3.4-4.1
		c0-2.8,1.6-3.9,3.2-3.9c1.5,0,2.2,0.8,2.6,1.4l0-1.2H149.3 M145.7,40.3c-2,0-2.1,2.1-2.1,2.7c0,0.5,0.1,1.6,0.6,2.4
		c0.3,0.5,0.9,0.7,1.6,0.7c1.7,0,2.1-1.4,2.1-2.9C147.9,42.7,147.9,40.3,145.7,40.3"/>
	<path d="M153.2,39.4v4.8c0,0.7,0.2,1.7,1.6,1.7c0.7,0,1.4-0.2,1.8-0.8c0.3-0.4,0.3-1,0.3-1.4v-4.3h1.5v6.1c0,0.2,0,1,0,1.4h-1.5
		l0-1.3c-0.3,0.5-0.8,1.4-2.4,1.4c-1.9,0-2.7-1.1-2.7-2.6v-5.1H153.2"/>
	<path d="M161.9,43.4c0,1.6,0.6,2.7,2.2,2.7c0.9,0,1.6-0.5,1.8-1.6h1.4c0,0.4-0.1,1-0.6,1.6c-0.3,0.4-1.1,1-2.6,1
		c-2.4,0-3.5-1.5-3.5-3.9c0-1.5,0.3-2.7,1.5-3.5c0.7-0.5,1.6-0.6,2.1-0.6c3.4,0,3.3,3,3.3,4.2H161.9 M165.9,42.5
		c0-0.7-0.1-2.2-1.9-2.2c-0.9,0-2,0.6-2.1,2.2H165.9z"/>
</g>
</svg>
